<svg viewBox="0 0 24 24" xmlns="http://www.w3.org/2000/svg">
  <path d="M12.527 1.003h1.018a1.002 1.002 0 0 1 .998 1.005v9.842a1.002 1.002 0 0 1-.998 1.004h-1.018a1.002 1.002 0 0 1-.999-1.004V2.008a1.002 1.002 0 0 1 .999-1.005zm-4.72 2.392c.621-1.077 1.066-2.182 1.258-3.085a1.002 1.002 0 0 1 1.996.11c-.244 1.28-1.554 2.8-2.673 3.992a1.002 1.002 0 0 1-1.018-.997zM2.87 9.845a1.002 1.002 0 0 1-.996 1.007c-1.393-.197-2.736-.61-3.618-1.121a1.002 1.002 0 0 1-.22-.387c-.524-1.352-.61-3.32-.23-4.912a1.002 1.002 0 0 1 1.767-.341c-.2 1.4-.11 2.87.16 4.092a1.002 1.002 0 0 1-.987 1.15zM22.09 10.842h-1.229a1.002 1.002 0 0 1-.998-1.004V2.008a1.002 1.002 0 0 1 .998-1.005h1.229a1.002 1.002 0 0 1 .998 1.005v7.83a1.002 1.002 0 0 1-.998 1.004z" fill="currentColor"/>
</svg>